<svg width="147" height="36" viewBox="0 0 147 36" fill="none" xmlns="http://www.w3.org/2000/svg">
<g clip-path="url(#clip0_210_3468)">
<path fill-rule="evenodd" clip-rule="evenodd" d="M7.72423 30.4312C6.1853 28.9945 4.95782 27.2576 4.11776 25.3279C3.2777 23.3982 2.84292 21.3168 2.84033 19.2125C2.83916 17.2575 3.21487 15.3205 3.94696 13.5074C8.98578 12.1732 13.7147 14.4287 17.5437 17.7125V17.731C18.333 18.5934 17.8904 19.2936 16.9239 19.5995C11.3908 21.8771 8.10048 25.3636 7.7021 30.4312" fill="#0091D3"/>
<path fill-rule="evenodd" clip-rule="evenodd" d="M21.0774 3.76658C23.1914 4.0461 25.2284 4.74421 27.069 5.82004C28.9096 6.89586 30.517 8.32777 31.7968 10.0319C32.9732 11.6041 33.8371 13.3868 34.3421 15.2838C31.0702 19.2457 25.8838 20.1302 20.8044 19.6695H20.7823C19.624 19.4226 19.5576 18.6044 20.1552 17.8047C23.2574 12.7924 23.8181 8.086 21.0774 3.7629" fill="#FFCC00"/>
<path fill-rule="evenodd" clip-rule="evenodd" d="M4.46338 12.3686C5.42075 10.4739 6.7493 8.79061 8.37018 7.41869C9.99106 6.04677 11.8712 5.01414 13.8992 4.38206C15.8049 3.77794 17.8053 3.5281 19.8012 3.64496C22.6562 7.90172 21.9148 12.984 19.8934 17.5467V17.5688C19.2958 18.5676 18.4732 18.3722 17.883 17.5688C13.9471 13.1462 9.52802 11.1744 4.46338 12.3759" fill="#FFCC00"/>
<path fill-rule="evenodd" clip-rule="evenodd" d="M26.3562 32.9889C24.4516 33.9752 22.371 34.5767 20.2335 34.7588C18.096 34.9409 15.9436 34.7002 13.8993 34.0504C11.9989 33.4522 10.2265 32.5062 8.67236 31.2604C8.93058 26.1781 12.5935 22.4963 16.9794 19.9607H17.0015C18.086 19.4926 18.6357 20.1229 18.632 21.1106C19.1484 26.9374 21.5313 31.0614 26.3562 33" fill="#0091D3"/>
<path fill-rule="evenodd" clip-rule="evenodd" d="M34.6079 16.5111C34.9825 18.5765 34.9262 20.697 34.4425 22.7397C33.9588 24.7823 33.0582 26.7033 31.7971 28.3821C30.6128 29.9691 29.1414 31.3204 27.4591 32.3661C22.5789 30.5565 20.1148 26.0233 18.9971 21.1769V21.1474C18.8791 19.9975 19.6648 19.6732 20.6239 19.9938C26.4705 21.3169 31.2401 20.3845 34.6116 16.5111" fill="#FFCC00"/>
<path fill-rule="evenodd" clip-rule="evenodd" d="M18.8457 -5.23473e-06C19.6334 0.00069693 20.4203 0.0462347 21.2028 0.136368C23.1726 2.80099 24.0358 5.59828 23.9251 8.50614C23.8218 11.2629 22.8406 14.1155 21.1069 17.0528C20.952 17.3108 20.7786 17.5688 20.6495 17.8415C20.5067 18.0891 20.446 18.3755 20.4761 18.6597C20.5056 18.7584 20.5586 18.8486 20.6305 18.9224C20.7025 18.9962 20.7913 19.0515 20.8893 19.0835C21.2344 19.2084 21.5994 19.2696 21.9664 19.2641C26.1605 19.5553 30.362 19.0025 33.6855 16.8464C35.0983 15.9299 36.3125 14.7393 37.2562 13.3452L37.496 12.9767C37.7828 13.7991 38.0132 14.6401 38.1858 15.4939C36.3885 17.9773 33.8003 19.7771 30.8452 20.5983C28.1266 21.3354 25.0391 21.3354 21.6233 20.6241C21.3209 20.5651 21.0184 20.484 20.7122 20.4472C20.4252 20.3879 20.1268 20.4214 19.8601 20.543C19.7739 20.5984 19.7026 20.674 19.6524 20.7634C19.6023 20.8527 19.5748 20.9529 19.5724 21.0553C19.5573 21.4123 19.6111 21.769 19.731 22.1056C20.738 26.0823 22.5824 29.8084 25.7141 32.2224C26.3645 32.7243 27.0626 33.1612 27.7983 33.527C28.5783 33.9125 29.3936 34.2223 30.2329 34.4521L30.6497 34.5627C29.9362 35.0856 29.1882 35.5596 28.4106 35.9816C25.2125 34.9533 22.8332 33.188 21.1622 30.7666C19.5871 28.4816 18.6576 25.6069 18.2887 22.242C18.2592 21.9398 18.2408 21.6376 18.1817 21.3391C18.1445 21.0527 18.015 20.7862 17.8129 20.5799C17.7303 20.5173 17.6343 20.4751 17.5324 20.4565C17.4305 20.4379 17.3257 20.4436 17.2264 20.473C16.8747 20.5682 16.5434 20.7268 16.2488 20.941C12.6781 23.1081 9.60911 25.9644 8.22583 29.6167C7.93727 30.3711 7.72594 31.1527 7.59505 31.9496C7.45918 32.79 7.40974 33.6422 7.4475 34.4926V34.9128C6.72065 34.4142 6.02807 33.8675 5.37443 33.2764C5.32404 30.2545 6.33123 27.3099 8.22214 24.9509C9.96691 22.7801 12.4789 21.0332 15.655 19.6511C15.939 19.5295 16.2304 19.4189 16.4997 19.2826C16.7668 19.1665 16.9893 18.9674 17.1341 18.715C17.1686 18.6194 17.1795 18.5169 17.166 18.4162C17.1526 18.3155 17.115 18.2196 17.0567 18.1364C16.8506 17.8402 16.5933 17.5831 16.2968 17.3772C13.0802 14.7383 9.34352 12.7776 5.3523 12.6192C4.5259 12.5874 3.69835 12.6343 2.88084 12.7592C2.01958 12.8915 1.17331 13.1076 0.354055 13.4042L-0.059082 13.5553C0.204498 12.7247 0.524944 11.9132 0.89999 11.1265C3.8257 10.1438 6.99616 10.1658 9.90789 11.1892C12.5638 12.14 15.0463 13.9275 17.3776 16.441C17.5763 16.674 17.7869 16.8966 18.0084 17.1081C18.2043 17.3203 18.4627 17.4648 18.7461 17.5209C18.8492 17.5241 18.9517 17.503 19.0452 17.4595C19.1387 17.416 19.2207 17.3512 19.2847 17.2703C19.5117 16.9915 19.6843 16.6728 19.7937 16.3305C21.3762 12.5307 22.1324 8.46192 21.0553 4.71745C20.8311 3.93994 20.5295 3.1868 20.1552 2.46929C19.7592 1.70893 19.2857 0.991382 18.7424 0.32801L18.4732 -0.00368309H18.7793" fill="#C71157"/>
<path d="M137.081 22.2457C137.263 22.2468 137.443 22.2112 137.611 22.1411C137.778 22.071 137.93 21.9678 138.057 21.8378C138.183 21.7077 138.283 21.5534 138.348 21.3841C138.414 21.2148 138.445 21.034 138.439 20.8526V16.9128L140.486 19.4926C140.594 19.6025 140.724 19.6897 140.866 19.7493C141.008 19.8088 141.161 19.8395 141.316 19.8395C141.47 19.8395 141.623 19.8088 141.766 19.7493C141.908 19.6897 142.037 19.6025 142.146 19.4926L144.193 16.9128V20.8636C144.193 21.2263 144.337 21.574 144.594 21.8305C144.851 22.0869 145.199 22.2309 145.562 22.2309C145.925 22.2309 146.273 22.0869 146.529 21.8305C146.786 21.574 146.93 21.2263 146.93 20.8636V13.1388C146.934 12.9576 146.902 12.7775 146.835 12.609C146.768 12.4406 146.668 12.2872 146.541 12.158C146.413 12.0288 146.261 11.9265 146.094 11.8569C145.926 11.7873 145.747 11.752 145.565 11.7531C145.35 11.7589 145.139 11.8129 144.947 11.9112C144.756 12.0094 144.589 12.1493 144.459 12.3206L141.338 16.4115L138.217 12.3206C138.087 12.1489 137.921 12.0087 137.729 11.9104C137.537 11.8122 137.326 11.7584 137.111 11.7531C136.929 11.7501 136.748 11.7837 136.58 11.8519C136.411 11.9202 136.258 12.0217 136.13 12.1503C136.001 12.279 135.9 12.4321 135.832 12.6007C135.764 12.7693 135.731 12.9498 135.735 13.1314V20.8452C135.729 21.0281 135.761 21.2102 135.828 21.3805C135.895 21.5508 135.996 21.7057 136.124 21.836C136.253 21.9662 136.407 22.069 136.576 22.1382C136.746 22.2073 136.928 22.2414 137.111 22.2383L137.081 22.2457ZM128.118 14.2445C129.593 14.2445 130.7 15.4201 130.7 16.9975C130.718 17.3473 130.664 17.6971 130.543 18.0256C130.421 18.3541 130.234 18.6544 129.992 18.9082C129.75 19.162 129.46 19.3639 129.137 19.5018C128.815 19.6397 128.468 19.7105 128.118 19.7101C126.616 19.7101 125.535 18.5749 125.535 16.9975C125.535 15.4201 126.598 14.2518 128.099 14.2518L128.118 14.2445ZM128.118 11.7531C127.43 11.7516 126.748 11.8855 126.112 12.1472C125.476 12.4089 124.898 12.7931 124.41 13.2781C123.923 13.763 123.536 14.3391 123.271 14.9735C123.007 15.6079 122.87 16.2882 122.868 16.9754C122.867 17.6627 123.001 18.3435 123.263 18.979C123.525 19.6145 123.909 20.1922 124.395 20.6792C124.88 21.1662 125.457 21.553 126.092 21.8173C126.727 22.0816 127.408 22.2184 128.095 22.2199C128.8 22.2478 129.502 22.1334 130.161 21.8837C130.821 21.6339 131.422 21.254 131.931 20.7665C132.44 20.279 132.845 19.694 133.122 19.0464C133.399 18.3989 133.543 17.7022 133.544 16.998C133.546 16.2937 133.405 15.5964 133.131 14.9477C132.856 14.299 132.454 13.7123 131.947 13.2227C131.44 12.733 130.84 12.3505 130.182 12.098C129.524 11.8455 128.822 11.7282 128.118 11.7531ZM113.363 11.7531C113.18 11.7485 112.999 11.781 112.83 11.8487C112.661 11.9164 112.507 12.0179 112.378 12.1468C112.249 12.2758 112.148 12.4296 112.081 12.5989C112.014 12.7682 111.982 12.9494 111.987 13.1314V20.8452C111.977 21.0305 112.005 21.2158 112.07 21.3898C112.134 21.5639 112.233 21.723 112.361 21.8576C112.489 21.9921 112.643 22.0993 112.813 22.1725C112.984 22.2457 113.168 22.2835 113.353 22.2835C113.539 22.2835 113.723 22.2457 113.893 22.1725C114.064 22.0993 114.218 21.9921 114.346 21.8576C114.474 21.723 114.573 21.5639 114.637 21.3898C114.701 21.2158 114.73 21.0305 114.72 20.8452V13.1388C114.728 12.9559 114.699 12.7732 114.633 12.6024C114.567 12.4315 114.466 12.2761 114.337 12.1459C114.209 12.0158 114.054 11.9137 113.884 11.846C113.713 11.7784 113.531 11.7468 113.348 11.7531H113.363ZM120.851 20.1413L118.032 16.6216L120.589 13.9275C120.84 13.6811 120.984 13.3464 120.991 12.9951C120.99 12.6653 120.858 12.3494 120.624 12.1166C120.391 11.8838 120.074 11.7531 119.744 11.7531C119.568 11.7473 119.393 11.7807 119.232 11.8508C119.07 11.921 118.927 12.026 118.811 12.1585L115.631 15.5823C115.345 15.8439 115.171 16.2055 115.144 16.5921C115.164 16.9533 115.307 17.2967 115.55 17.5651L118.973 21.7961C119.083 21.9427 119.227 22.0599 119.393 22.1371C119.559 22.2143 119.742 22.2491 119.925 22.2383C120.09 22.2398 120.254 22.2084 120.407 22.146C120.56 22.0836 120.699 21.9914 120.816 21.8748C120.933 21.7582 121.026 21.6195 121.089 21.4668C121.152 21.3141 121.184 21.1504 121.183 20.9852C121.174 20.6738 121.057 20.3752 120.851 20.1413ZM104.919 13.9644C105.197 13.9457 105.475 13.9842 105.737 14.0774C105.999 14.1706 106.239 14.3165 106.443 14.5062C106.646 14.6959 106.808 14.9252 106.919 15.1801C107.03 15.4349 107.088 15.7098 107.088 15.9877H102.529C102.835 14.7567 103.724 13.9644 104.919 13.9644ZM104.982 11.7531C104.291 11.7425 103.606 11.8712 102.967 12.1315C102.327 12.3918 101.747 12.7784 101.261 13.2681C100.774 13.7578 100.392 14.3405 100.136 14.9813C99.8808 15.6221 99.7573 16.3079 99.7732 16.9975C99.7732 19.9939 102.105 22.2383 105.266 22.2383C106.394 22.251 107.501 21.9277 108.445 21.3096C108.651 21.2062 108.824 21.0484 108.945 20.8534C109.067 20.6584 109.133 20.4337 109.135 20.2039C109.139 20.0578 109.113 19.9124 109.058 19.7767C109.004 19.6409 108.922 19.5176 108.819 19.4142C108.716 19.3109 108.592 19.2295 108.456 19.1752C108.32 19.1209 108.175 19.0947 108.029 19.0983C107.82 19.102 107.617 19.1646 107.442 19.2789C106.819 19.6749 106.097 19.8893 105.358 19.898C103.882 19.898 102.864 19.1609 102.54 17.9152H108.254C109.146 17.9152 109.755 17.3698 109.755 16.5184V16.4594C109.744 13.7469 107.715 11.7531 104.989 11.7531H104.982ZM96.1288 11.9779H90.9719C90.7875 11.9749 90.6043 12.009 90.4334 12.0781C90.2624 12.1473 90.1071 12.25 89.9767 12.3803C89.8462 12.5106 89.7434 12.6658 89.6742 12.8366C89.605 13.0075 89.5709 13.1904 89.5739 13.3747V14.3661C89.5739 17.93 88.8361 19.2052 87.7516 19.769C87.2831 20.0528 86.918 20.2776 86.918 20.9226C86.9189 21.0836 86.9517 21.2428 87.0143 21.3911C87.077 21.5395 87.1684 21.674 87.2832 21.787C87.398 21.8999 87.534 21.9892 87.6833 22.0496C87.8327 22.1099 87.9925 22.1403 88.1537 22.1388C88.4189 22.1362 88.6809 22.0811 88.9246 21.9766C91.1932 21.0258 92.2888 18.7997 92.2888 15.1953V14.285H94.8008V20.8452C94.8008 21.2049 94.9438 21.5499 95.1984 21.8042C95.453 22.0586 95.7982 22.2015 96.1583 22.2015C96.5183 22.2015 96.8635 22.0586 97.1181 21.8042C97.3727 21.5499 97.5157 21.2049 97.5157 20.8452V13.3821C97.5187 13.1994 97.4851 13.0179 97.4171 12.8483C97.349 12.6787 97.2478 12.5244 97.1193 12.3944C96.9909 12.2643 96.8378 12.1611 96.669 12.0909C96.5001 12.0207 96.319 11.9847 96.1361 11.9853L96.1288 11.9779ZM81.4181 13.9644C81.6965 13.9446 81.976 13.9824 82.2392 14.0753C82.5024 14.1683 82.7436 14.3144 82.9478 14.5046C83.152 14.6948 83.3148 14.9249 83.426 15.1807C83.5373 15.4365 83.5946 15.7125 83.5944 15.9914H79.0277C79.3339 14.7568 80.2229 13.9644 81.4181 13.9644ZM81.4808 11.7531C80.7904 11.7425 80.105 11.8712 79.4656 12.1315C78.8262 12.3918 78.246 12.7784 77.7597 13.2681C77.2734 13.7578 76.891 14.3405 76.6354 14.9813C76.3798 15.6221 76.2563 16.3079 76.2723 16.9975C76.2723 19.9939 78.6035 22.2383 81.7648 22.2383C82.8935 22.251 84.0004 21.9277 84.9445 21.3096C85.1499 21.2062 85.3228 21.0484 85.4445 20.8534C85.5662 20.6584 85.6318 20.4337 85.6343 20.2039C85.6378 20.0578 85.6116 19.9124 85.5573 19.7767C85.5029 19.6409 85.4215 19.5176 85.318 19.4142C85.2146 19.3109 85.0912 19.2295 84.9553 19.1752C84.8194 19.1209 84.6739 19.0947 84.5277 19.0983C84.3178 19.1013 84.1131 19.164 83.9375 19.2789C83.3108 19.6639 82.589 19.8669 81.8533 19.8649C80.3778 19.8649 79.3597 19.1278 79.0351 17.8821H84.749C85.6417 17.8821 86.2503 17.3366 86.2503 16.4853V16.4263C86.2429 13.7469 84.2141 11.7531 81.4808 11.7531ZM69.5477 22.2383C69.7308 22.2414 69.9126 22.2073 70.0821 22.1382C70.2517 22.069 70.4054 21.9662 70.534 21.836C70.6627 21.7057 70.7635 21.5508 70.8305 21.3805C70.8974 21.2102 70.9291 21.0281 70.9236 20.8452V11.1155H74.107C74.2709 11.1184 74.4338 11.0886 74.5861 11.0279C74.7384 10.9671 74.877 10.8765 74.9938 10.7616C75.1106 10.6466 75.2033 10.5094 75.2664 10.3582C75.3294 10.207 75.3617 10.0447 75.3611 9.88084C75.3653 9.71599 75.3356 9.55205 75.2738 9.39915C75.212 9.24625 75.1194 9.10764 75.0019 8.99191C74.8843 8.87618 74.7442 8.78578 74.5903 8.72632C74.4364 8.66685 74.2719 8.63958 74.107 8.64619H65.0105C64.8457 8.64068 64.6815 8.66868 64.5279 8.72849C64.3742 8.7883 64.2344 8.87867 64.1167 8.99412C63.9991 9.10958 63.9062 9.24772 63.8436 9.40014C63.781 9.55256 63.7501 9.71611 63.7527 9.88084C63.7521 10.045 63.7845 10.2076 63.8478 10.3591C63.9111 10.5106 64.0041 10.6478 64.1213 10.7629C64.2385 10.8779 64.3775 10.9684 64.5303 11.0289C64.683 11.0895 64.8463 11.1189 65.0105 11.1155H68.1902V20.8526C68.1843 21.034 68.215 21.2148 68.2807 21.3841C68.3463 21.5534 68.4455 21.7077 68.5722 21.8378C68.699 21.9678 68.8507 22.071 69.0183 22.1411C69.1859 22.2112 69.366 22.2468 69.5477 22.2457V22.2383ZM56.8437 20.1155L52.3655 14.9337L56.3973 10.5811C56.5222 10.4639 56.6224 10.3231 56.692 10.1668C56.7617 10.0105 56.7995 9.84183 56.8031 9.67076C56.807 9.33835 56.6794 9.01783 56.448 8.779C56.2165 8.54016 55.9 8.40236 55.5674 8.39558C55.3794 8.39303 55.1932 8.43162 55.0218 8.50866C54.8503 8.5857 54.6979 8.69932 54.5751 8.84152L49.7539 14.0418C49.5262 14.2753 49.3946 14.5857 49.385 14.9115C49.3975 15.2488 49.528 15.5709 49.7539 15.8219L54.8222 21.6818C54.9522 21.853 55.1193 21.9927 55.3109 22.0903C55.5026 22.188 55.7138 22.2411 55.9289 22.2457C56.2675 22.2362 56.5894 22.0963 56.8273 21.8552C57.0651 21.6142 57.2005 21.2906 57.2052 20.9521C57.194 20.6399 57.0648 20.3436 56.8437 20.1228V20.1155ZM47.4632 8.39558C47.2795 8.39142 47.0969 8.42487 46.9266 8.49388C46.7563 8.56289 46.602 8.66599 46.4731 8.79685C46.3442 8.9277 46.2435 9.08354 46.1771 9.25475C46.1108 9.42596 46.0802 9.60892 46.0873 9.79238V20.8489C46.0777 21.0342 46.1059 21.2195 46.1702 21.3935C46.2345 21.5676 46.3336 21.7267 46.4615 21.8613C46.5893 21.9958 46.7433 22.103 46.9139 22.1762C47.0845 22.2494 47.2683 22.2872 47.454 22.2872C47.6397 22.2872 47.8234 22.2494 47.994 22.1762C48.1647 22.103 48.3186 21.9958 48.4465 21.8613C48.5743 21.7267 48.6734 21.5676 48.7377 21.3935C48.8021 21.2195 48.8303 21.0342 48.8206 20.8489V9.79238C48.8256 9.61137 48.7941 9.43121 48.7281 9.26259C48.662 9.09396 48.5627 8.94031 48.4361 8.81073C48.3095 8.68115 48.1582 8.57828 47.9911 8.50823C47.8239 8.43818 47.6444 8.40239 47.4632 8.40295V8.39558Z" fill="#C71157"/>
<path d="M144.794 30.4865C144.389 30.4865 144.141 30.2912 144.141 29.9889C144.141 29.6867 144.363 29.5283 144.776 29.5283H145.753V29.5835C145.753 29.7066 145.727 29.8282 145.678 29.941C145.628 30.0539 145.557 30.1556 145.467 30.24C145.377 30.3244 145.272 30.3897 145.156 30.4321C145.04 30.4745 144.917 30.493 144.794 30.4865ZM145.027 26.6204C144.425 26.597 143.836 26.798 143.374 27.1843C143.299 27.2451 143.238 27.3207 143.193 27.4063C143.149 27.4918 143.123 27.5856 143.116 27.6818C143.117 27.7504 143.132 27.818 143.16 27.8807C143.188 27.9435 143.228 28.0001 143.277 28.0474C143.327 28.0947 143.386 28.1317 143.45 28.1562C143.514 28.1808 143.582 28.1924 143.651 28.1904C143.787 28.186 143.918 28.1338 144.02 28.043C144.259 27.8226 144.572 27.7002 144.898 27.7002C145.01 27.6815 145.125 27.6888 145.233 27.7217C145.342 27.7547 145.442 27.8123 145.525 27.89C145.608 27.9678 145.671 28.0637 145.711 28.1701C145.751 28.2766 145.765 28.3907 145.753 28.5037V28.7064H144.61C143.54 28.7064 142.884 29.215 142.884 30.0332C142.884 30.8514 143.522 31.4005 144.462 31.4005C144.955 31.4163 145.435 31.2406 145.801 30.9103C145.829 31.0481 145.905 31.1717 146.015 31.2594C146.125 31.347 146.262 31.3931 146.403 31.3894C146.483 31.3905 146.563 31.3752 146.637 31.3444C146.711 31.3136 146.778 31.268 146.834 31.2104C146.89 31.1528 146.934 31.0843 146.962 31.0093C146.991 30.9342 147.004 30.8542 147 30.774V28.5626C147 27.3317 146.281 26.6204 145.027 26.6204ZM140.383 31.4115C140.466 31.4126 140.548 31.3967 140.625 31.3648C140.702 31.3329 140.772 31.2857 140.83 31.226C140.888 31.1663 140.933 31.0955 140.963 31.0177C140.992 30.94 141.006 30.8571 141.002 30.774V27.7776H141.987C142.058 27.7812 142.129 27.7702 142.195 27.7451C142.261 27.72 142.321 27.6815 142.372 27.632C142.423 27.5825 142.462 27.523 142.489 27.4574C142.515 27.3917 142.528 27.3213 142.526 27.2506C142.527 27.1802 142.513 27.1103 142.487 27.0451C142.46 26.98 142.42 26.921 142.37 26.8717C142.319 26.8224 142.259 26.7838 142.194 26.7584C142.128 26.7329 142.058 26.7211 141.987 26.7236H138.785C138.715 26.7221 138.646 26.7347 138.581 26.7605C138.516 26.7864 138.456 26.8251 138.406 26.8742C138.357 26.9233 138.317 26.982 138.29 27.0466C138.263 27.1113 138.25 27.1806 138.25 27.2506C138.249 27.3209 138.262 27.3907 138.288 27.4558C138.315 27.521 138.354 27.58 138.404 27.6294C138.454 27.6787 138.514 27.7173 138.579 27.7428C138.645 27.7683 138.715 27.7802 138.785 27.7776H139.763V30.774C139.762 30.8575 139.778 30.9403 139.81 31.0175C139.841 31.0947 139.889 31.1647 139.948 31.2232C140.008 31.2818 140.079 31.3276 140.156 31.3581C140.234 31.3886 140.317 31.403 140.401 31.4005L140.383 31.4115ZM135.414 30.2764C135.253 30.2766 135.093 30.2432 134.946 30.1782C134.799 30.1132 134.666 30.0181 134.558 29.8991C134.45 29.78 134.367 29.6396 134.317 29.4869C134.266 29.3342 134.247 29.1725 134.263 29.0123C134.247 28.8525 134.265 28.6911 134.315 28.5387C134.366 28.3862 134.448 28.2463 134.557 28.1279C134.666 28.0096 134.798 27.9156 134.946 27.852C135.094 27.7885 135.253 27.7568 135.414 27.7592C135.736 27.7766 136.039 27.9168 136.261 28.151C136.483 28.3851 136.607 28.6953 136.607 29.0178C136.607 29.3403 136.483 29.6505 136.261 29.8847C136.039 30.1188 135.736 30.259 135.414 30.2764ZM135.646 26.6314C135.385 26.6205 135.125 26.6669 134.884 26.7676C134.643 26.8682 134.427 27.0205 134.252 27.2138C134.251 27.1355 134.235 27.0582 134.205 26.9861C134.174 26.9141 134.13 26.8488 134.074 26.7939C134.018 26.7391 133.952 26.6959 133.879 26.6668C133.807 26.6376 133.729 26.6231 133.651 26.6241C133.569 26.6211 133.488 26.6346 133.411 26.6639C133.335 26.6932 133.266 26.7376 133.207 26.7944C133.149 26.8512 133.102 26.9193 133.07 26.9945C133.039 27.0698 133.023 27.1506 133.023 27.2322V32.4324C133.023 32.5976 133.089 32.7561 133.206 32.8729C133.323 32.9897 133.482 33.0553 133.647 33.0553C133.812 33.0553 133.971 32.9897 134.088 32.8729C134.205 32.7561 134.27 32.5976 134.27 32.4324V30.8477C134.445 31.0313 134.658 31.1756 134.893 31.2709C135.128 31.3662 135.381 31.4104 135.635 31.4005C136.919 31.4005 137.848 30.3833 137.848 29.0012C137.848 27.6192 136.93 26.6204 135.646 26.6204V26.6314ZM129.563 27.7666C129.878 27.7907 130.171 27.9325 130.385 28.1634C130.599 28.3944 130.718 28.6975 130.718 29.0123C130.718 29.327 130.599 29.6302 130.385 29.8612C130.171 30.0921 129.878 30.2338 129.563 30.258C129.403 30.2597 129.244 30.2286 129.096 30.1665C128.948 30.1044 128.815 30.0126 128.704 29.8969C128.593 29.7812 128.507 29.644 128.451 29.4937C128.395 29.3435 128.371 29.1834 128.379 29.0233C128.368 28.861 128.39 28.698 128.444 28.5445C128.498 28.3911 128.584 28.2504 128.695 28.1315C128.806 28.0125 128.94 27.9176 129.09 27.853C129.239 27.7883 129.401 27.7551 129.563 27.7555V27.7666ZM129.563 26.6314C128.93 26.6314 128.323 26.8827 127.876 27.3299C127.428 27.777 127.177 28.3836 127.177 29.016C127.177 29.6484 127.428 30.2549 127.876 30.7021C128.323 31.1493 128.93 31.4005 129.563 31.4005C130.196 31.4005 130.803 31.1493 131.251 30.7021C131.699 30.2549 131.95 29.6484 131.95 29.016C131.95 28.3836 131.699 27.777 131.251 27.3299C130.803 26.8827 130.196 26.6314 129.563 26.6314ZM123.728 30.3391H123.709V27.6818H123.728C124.632 27.6818 125.178 28.1904 125.178 29.0123C125.178 29.8341 124.632 30.3391 123.728 30.3391ZM121.079 29.0123C121.079 28.1794 121.625 27.6818 122.518 27.6818H122.536V30.3391H122.518C121.625 30.3391 121.079 29.8415 121.079 29.0123ZM126.395 29.0123C126.395 27.5934 125.344 26.6499 123.746 26.6314V24.9066C123.75 24.8237 123.736 24.7409 123.707 24.6634C123.677 24.5858 123.632 24.5152 123.574 24.4558C123.516 24.3964 123.446 24.3495 123.369 24.3181C123.292 24.2866 123.21 24.2711 123.127 24.2727C123.043 24.2717 122.961 24.2875 122.884 24.3191C122.807 24.3507 122.737 24.3974 122.678 24.4566C122.62 24.5158 122.574 24.5861 122.543 24.6634C122.512 24.7408 122.498 24.8235 122.5 24.9066V26.6314C120.921 26.6499 119.858 27.5934 119.858 29.0123C119.858 30.4312 120.921 31.3931 122.5 31.4115V32.4361C122.498 32.5193 122.512 32.602 122.543 32.6793C122.574 32.7566 122.62 32.827 122.678 32.8862C122.737 32.9453 122.807 32.9921 122.884 33.0237C122.961 33.0553 123.043 33.071 123.127 33.07C123.21 33.0716 123.292 33.0562 123.369 33.0247C123.446 32.9932 123.516 32.9463 123.574 32.8869C123.632 32.8276 123.677 32.7569 123.707 32.6794C123.736 32.6019 123.75 32.5191 123.746 32.4361V31.4115C125.336 31.3821 126.384 30.4201 126.384 29.0012L126.395 29.0123ZM114.347 31.4115C114.43 31.4116 114.512 31.395 114.589 31.3627C114.665 31.3305 114.734 31.2832 114.792 31.2237C114.85 31.1643 114.895 31.0938 114.925 31.0166C114.955 30.9393 114.97 30.8568 114.967 30.774V28.9644L115.9 30.1437C115.947 30.1943 116.005 30.2345 116.068 30.2618C116.132 30.289 116.2 30.3028 116.269 30.3022C116.338 30.3024 116.407 30.2884 116.47 30.2611C116.534 30.2339 116.591 30.1939 116.638 30.1437L117.571 28.9644V30.7629C117.571 30.9281 117.637 31.0865 117.754 31.2033C117.871 31.3201 118.029 31.3857 118.195 31.3857C118.36 31.3857 118.519 31.3201 118.636 31.2033C118.752 31.0865 118.818 30.9281 118.818 30.7629V27.2506C118.82 27.1674 118.804 27.0848 118.773 27.0077C118.742 26.9305 118.696 26.8605 118.637 26.8016C118.578 26.7428 118.508 26.6965 118.431 26.6653C118.353 26.6342 118.271 26.6189 118.187 26.6204C118.089 26.6226 117.993 26.647 117.905 26.6917C117.818 26.7363 117.741 26.8002 117.682 26.8784L116.258 28.7432L114.856 26.8636C114.796 26.7853 114.719 26.7215 114.631 26.6768C114.543 26.6322 114.446 26.6079 114.347 26.6056C114.264 26.6046 114.182 26.6203 114.105 26.6517C114.029 26.683 113.959 26.7295 113.9 26.7882C113.842 26.847 113.796 26.9169 113.765 26.9938C113.734 27.0707 113.719 27.153 113.72 27.2359V30.7482C113.716 30.8328 113.729 30.9175 113.758 30.997C113.788 31.0765 113.833 31.1491 113.892 31.2103C113.951 31.2714 114.022 31.3199 114.1 31.3526C114.178 31.3853 114.263 31.4016 114.347 31.4005V31.4115ZM110.249 27.7666C110.58 27.7666 110.897 27.8978 111.131 28.1314C111.365 28.3651 111.496 28.6819 111.496 29.0123C111.496 29.3427 111.365 29.6595 111.131 29.8931C110.897 30.1267 110.58 30.258 110.249 30.258C110.089 30.2598 109.93 30.2286 109.782 30.1665C109.635 30.1043 109.501 30.0125 109.391 29.8967C109.28 29.781 109.194 29.6437 109.139 29.4934C109.084 29.3432 109.06 29.1832 109.069 29.0233C109.057 28.8612 109.078 28.6983 109.132 28.5448C109.186 28.3914 109.271 28.2507 109.382 28.1316C109.492 28.0126 109.627 27.9177 109.776 27.853C109.925 27.7882 110.086 27.7551 110.249 27.7555V27.7666ZM110.249 26.6314C109.616 26.6314 109.009 26.8827 108.562 27.3299C108.114 27.777 107.863 28.3836 107.863 29.016C107.863 29.6484 108.114 30.2549 108.562 30.7021C109.009 31.1493 109.616 31.4005 110.249 31.4005C110.882 31.4005 111.489 31.1493 111.937 30.7021C112.384 30.2549 112.636 29.6484 112.636 29.016C112.636 28.3836 112.384 27.777 111.937 27.3299C111.489 26.8827 110.882 26.6314 110.249 26.6314ZM103.528 26.6314C103.445 26.6294 103.362 26.6443 103.285 26.6753C103.208 26.7063 103.138 26.7527 103.079 26.8117C103.02 26.8707 102.974 26.941 102.944 27.0184C102.913 27.0958 102.899 27.1785 102.901 27.2617V30.774C102.901 30.9391 102.967 31.0976 103.084 31.2144C103.201 31.3312 103.359 31.3968 103.525 31.3968C103.69 31.3968 103.849 31.3312 103.965 31.2144C104.082 31.0976 104.148 30.9391 104.148 30.774V27.2617C104.153 27.1767 104.141 27.0916 104.111 27.0119C104.081 26.9322 104.034 26.8597 103.974 26.7991C103.915 26.7386 103.843 26.6914 103.763 26.6606C103.684 26.6298 103.599 26.6161 103.514 26.6204L103.528 26.6314ZM106.955 30.4496L105.671 28.8464L106.833 27.6007C106.891 27.5458 106.936 27.48 106.968 27.4072C107 27.3345 107.017 27.2562 107.018 27.1769C107.017 27.1024 107.002 27.0287 106.973 26.96C106.944 26.8913 106.902 26.829 106.849 26.7766C106.796 26.7243 106.733 26.6829 106.664 26.6548C106.595 26.6267 106.521 26.6125 106.446 26.613C106.366 26.6108 106.287 26.6262 106.214 26.658C106.14 26.6899 106.075 26.7374 106.022 26.7973L104.572 28.3563C104.441 28.4762 104.361 28.6429 104.351 28.8206C104.361 28.9845 104.426 29.1401 104.535 29.2629L106.096 31.1904C106.146 31.2571 106.212 31.3105 106.288 31.3458C106.364 31.3812 106.447 31.3974 106.531 31.3931C106.606 31.3936 106.681 31.3792 106.75 31.3506C106.82 31.3221 106.883 31.28 106.936 31.2269C106.99 31.1738 107.032 31.1106 107.06 31.0411C107.089 30.9715 107.103 30.897 107.103 30.8219C107.098 30.6811 107.046 30.546 106.955 30.4386V30.4496ZM97.7333 29.086H96.9292C96.8361 29.0958 96.742 29.086 96.653 29.0571C96.5639 29.0282 96.482 28.981 96.4124 28.9184C96.3429 28.8559 96.2873 28.7794 96.2492 28.694C96.2111 28.6086 96.1914 28.5161 96.1914 28.4226C96.1914 28.0356 96.4754 27.785 96.9292 27.785H97.7333V29.086ZM98.342 26.7346H96.8369C95.6824 26.7346 94.9188 27.4165 94.9188 28.441C94.9122 28.6823 94.9601 28.922 95.0591 29.1421C95.1581 29.3623 95.3056 29.5573 95.4906 29.7125L94.9372 30.3317C94.8076 30.4485 94.7282 30.611 94.7159 30.785C94.7159 30.9493 94.7804 31.107 94.8957 31.2242C95.0109 31.3414 95.1676 31.4087 95.3319 31.4115C95.4242 31.4114 95.5153 31.3905 95.5983 31.3503C95.6814 31.3101 95.7542 31.2517 95.8115 31.1794L96.682 30.1364H97.7333V30.774C97.7333 30.9391 97.799 31.0976 97.9159 31.2144C98.0328 31.3312 98.1914 31.3968 98.3567 31.3968C98.522 31.3968 98.6806 31.3312 98.7975 31.2144C98.9144 31.0976 98.9801 30.9391 98.9801 30.774V27.3722C98.9836 27.2877 98.9698 27.2033 98.9396 27.1242C98.9094 27.0451 98.8634 26.9731 98.8044 26.9124C98.7453 26.8517 98.6745 26.8036 98.5963 26.7711C98.5181 26.7387 98.434 26.7225 98.3493 26.7236L98.342 26.7346ZM93.0339 26.6314C92.9238 26.6344 92.8161 26.6637 92.7198 26.7169C92.6235 26.7702 92.5415 26.8458 92.4805 26.9373L90.603 29.2776V27.2506C90.603 27.0854 90.5373 26.927 90.4204 26.8102C90.3035 26.6934 90.1449 26.6278 89.9796 26.6278C89.8142 26.6278 89.6557 26.6934 89.5388 26.8102C89.4219 26.927 89.3562 27.0854 89.3562 27.2506V30.7629C89.3537 30.8457 89.3679 30.9283 89.398 31.0055C89.428 31.0828 89.4732 31.1532 89.531 31.2127C89.5888 31.2721 89.658 31.3194 89.7344 31.3517C89.8108 31.3839 89.8929 31.4005 89.9759 31.4005C90.0858 31.3973 90.1935 31.3678 90.2897 31.3146C90.386 31.2614 90.4681 31.186 90.5292 31.0946L92.4105 28.7617V30.7629C92.4105 30.9271 92.4757 31.0846 92.592 31.2007C92.7082 31.3168 92.8658 31.3821 93.0302 31.3821C93.1945 31.3821 93.3521 31.3168 93.4684 31.2007C93.5846 31.0846 93.6499 30.9271 93.6499 30.7629V27.2506C93.6523 27.169 93.6384 27.0878 93.609 27.0117C93.5796 26.9356 93.5352 26.8661 93.4785 26.8074C93.4218 26.7486 93.3539 26.7018 93.2788 26.6697C93.2037 26.6376 93.1229 26.6208 93.0412 26.6204L93.0339 26.6314ZM85.8888 30.2764C85.7275 30.2766 85.5681 30.2431 85.4205 30.1782C85.273 30.1132 85.1406 30.0182 85.0319 29.8992C84.9232 29.7802 84.8406 29.6399 84.7894 29.4872C84.7381 29.3344 84.7193 29.1727 84.7342 29.0123C84.7186 28.8523 84.737 28.6908 84.7881 28.5384C84.8393 28.386 84.9221 28.2461 85.031 28.1278C85.14 28.0095 85.2727 27.9156 85.4205 27.852C85.5683 27.7885 85.7279 27.7569 85.8888 27.7592C86.2111 27.7766 86.5144 27.9168 86.7364 28.151C86.9584 28.3851 87.0821 28.6953 87.0821 29.0178C87.0821 29.3403 86.9584 29.6505 86.7364 29.8847C86.5144 30.1188 86.2111 30.259 85.8888 30.2764ZM86.1212 26.6314C85.8602 26.6202 85.6 26.6666 85.359 26.7672C85.118 26.8679 84.9022 27.0203 84.7268 27.2138C84.7249 27.0561 84.6605 26.9055 84.5479 26.795C84.4352 26.6846 84.2834 26.6231 84.1255 26.6241C84.0438 26.6226 83.9625 26.6376 83.8866 26.6682C83.8108 26.6987 83.7418 26.7443 83.684 26.8021C83.6262 26.8599 83.5806 26.9287 83.5499 27.0045C83.5193 27.0803 83.5043 27.1615 83.5058 27.2432V32.4435C83.5058 32.6087 83.5715 32.7671 83.6884 32.8839C83.8053 33.0007 83.9639 33.0663 84.1292 33.0663C84.2946 33.0663 84.4531 33.0007 84.57 32.8839C84.687 32.7671 84.7526 32.6087 84.7526 32.4435V30.8587C84.9284 31.0427 85.1413 31.1871 85.3773 31.2824C85.6133 31.3777 85.8668 31.4217 86.1212 31.4115C87.4012 31.4115 88.3344 30.3943 88.3344 29.0123C88.3344 27.6302 87.4085 26.6204 86.1285 26.6204L86.1212 26.6314ZM80.0347 27.7666C80.3654 27.7666 80.6825 27.8978 80.9164 28.1314C81.1502 28.3651 81.2815 28.6819 81.2815 29.0123C81.2815 29.3427 81.1502 29.6595 80.9164 29.8931C80.6825 30.1267 80.3654 30.258 80.0347 30.258C79.8745 30.2598 79.7156 30.2286 79.5679 30.1665C79.4202 30.1043 79.2869 30.0125 79.1762 29.8967C79.0655 29.781 78.9798 29.6437 78.9245 29.4934C78.8691 29.3432 78.8452 29.1832 78.8543 29.0233C78.8421 28.8606 78.8638 28.697 78.918 28.5431C78.9723 28.3891 79.058 28.2481 79.1696 28.1289C79.2813 28.0097 79.4165 27.915 79.5667 27.8507C79.7168 27.7865 79.8787 27.7541 80.0421 27.7555L80.0347 27.7666ZM80.0347 26.6314C79.4018 26.6314 78.7947 26.8827 78.3471 27.3299C77.8996 27.777 77.6481 28.3836 77.6481 29.016C77.6481 29.6484 77.8996 30.2549 78.3471 30.7021C78.7947 31.1493 79.4018 31.4005 80.0347 31.4005C80.6677 31.4005 81.2748 31.1493 81.7223 30.7021C82.1699 30.2549 82.4214 29.6484 82.4214 29.016C82.4214 28.3836 82.1699 27.777 81.7223 27.3299C81.2748 26.8827 80.6677 26.6314 80.0347 26.6314ZM75.0586 31.4226C75.1419 31.4237 75.2245 31.4078 75.3014 31.3759C75.3783 31.344 75.4478 31.2968 75.5058 31.2371C75.5638 31.1774 75.6091 31.1065 75.6387 31.0288C75.6684 30.9511 75.6819 30.8681 75.6783 30.785V27.7887H76.6669C76.7373 27.7918 76.8077 27.7803 76.8734 27.755C76.9392 27.7297 76.9991 27.6911 77.0493 27.6416C77.0995 27.5922 77.1389 27.5329 77.1652 27.4675C77.1914 27.4022 77.2039 27.3321 77.2018 27.2617C77.2033 27.1914 77.1905 27.1216 77.1641 27.0564C77.1376 26.9913 77.0982 26.9323 77.0481 26.8829C76.998 26.8336 76.9384 26.795 76.8728 26.7695C76.8073 26.744 76.7372 26.7321 76.6669 26.7346H73.4614C73.3262 26.7335 73.1958 26.7847 73.0975 26.8774C72.9992 26.9701 72.9406 27.0973 72.9339 27.2322C72.9324 27.3024 72.9452 27.3723 72.9716 27.4374C72.998 27.5025 73.0375 27.5616 73.0876 27.6109C73.1377 27.6603 73.1973 27.6989 73.2629 27.7244C73.3284 27.7499 73.3985 27.7617 73.4688 27.7592H74.45V30.7555C74.446 30.8388 74.459 30.922 74.4881 31.0001C74.5173 31.0782 74.562 31.1496 74.6196 31.2099C74.6772 31.2702 74.7465 31.3182 74.8232 31.351C74.9 31.3838 74.9826 31.4006 75.066 31.4005L75.0586 31.4226ZM71.617 26.6314C71.5069 26.6337 71.3989 26.6628 71.3025 26.7161C71.2061 26.7694 71.1242 26.8453 71.0637 26.9373L69.2083 29.2776V27.2506C69.2083 27.0854 69.1426 26.927 69.0257 26.8102C68.9088 26.6934 68.7502 26.6278 68.5849 26.6278C68.4195 26.6278 68.261 26.6934 68.1441 26.8102C68.0272 26.927 67.9615 27.0854 67.9615 27.2506V30.7629C67.9585 30.8456 67.9722 30.928 68.0019 31.0052C68.0315 31.0825 68.0764 31.153 68.1339 31.2125C68.1914 31.272 68.2603 31.3193 68.3365 31.3516C68.4128 31.3839 68.4947 31.4005 68.5775 31.4005C68.6881 31.3979 68.7964 31.3687 68.8934 31.3155C68.9903 31.2622 69.073 31.1865 69.1345 31.0946L71.0158 28.7617V30.7629C71.0158 30.9271 71.0811 31.0846 71.1973 31.2007C71.3135 31.3168 71.4711 31.3821 71.6355 31.3821C71.7998 31.3821 71.9575 31.3168 72.0737 31.2007C72.1899 31.0846 72.2552 30.9271 72.2552 30.7629V27.2506C72.2577 27.1672 72.2432 27.0841 72.2124 27.0065C72.1816 26.9288 72.1352 26.8583 72.0761 26.7993C72.017 26.7403 71.9465 26.6939 71.8688 26.6632C71.7911 26.6324 71.7079 26.6178 71.6244 26.6204L71.617 26.6314ZM64.4719 30.2764C64.3107 30.2766 64.1512 30.2431 64.0037 30.1782C63.8561 30.1132 63.7238 30.0182 63.6151 29.8992C63.5064 29.7802 63.4238 29.6399 63.3725 29.4872C63.3213 29.3344 63.3025 29.1727 63.3174 29.0123C63.3018 28.8523 63.3202 28.6908 63.3713 28.5384C63.4225 28.386 63.5052 28.2461 63.6142 28.1278C63.7232 28.0095 63.8559 27.9156 64.0037 27.852C64.1515 27.7885 64.3111 27.7569 64.4719 27.7592C64.7942 27.7766 65.0976 27.9168 65.3196 28.151C65.5416 28.3851 65.6653 28.6953 65.6653 29.0178C65.6653 29.3403 65.5416 29.6505 65.3196 29.8847C65.0976 30.1188 64.7942 30.259 64.4719 30.2764ZM64.7006 26.6314C64.4398 26.621 64.1798 26.6677 63.9389 26.7683C63.698 26.8689 63.4821 27.0209 63.3063 27.2138C63.3058 27.1358 63.29 27.0588 63.2597 26.987C63.2294 26.9152 63.1852 26.85 63.1297 26.7953C63.0743 26.7405 63.0085 26.6972 62.9363 26.6678C62.864 26.6385 62.7867 26.6236 62.7087 26.6241C62.6269 26.6226 62.5457 26.6376 62.4698 26.6682C62.3939 26.6987 62.325 26.7443 62.2672 26.8021C62.2093 26.8599 62.1637 26.9287 62.1331 27.0045C62.1025 27.0803 62.0875 27.1615 62.089 27.2432V32.4435C62.089 32.6087 62.1547 32.7671 62.2716 32.8839C62.3885 33.0007 62.5471 33.0663 62.7124 33.0663C62.8777 33.0663 63.0363 33.0007 63.1532 32.8839C63.2701 32.7671 63.3358 32.6087 63.3358 32.4435V30.8587C63.511 31.0424 63.7233 31.1866 63.9586 31.282C64.194 31.3773 64.4469 31.4215 64.7006 31.4115C65.9843 31.4115 66.9139 30.3943 66.9139 29.0123C66.9139 27.6302 65.9917 26.6204 64.708 26.6204L64.7006 26.6314ZM58.6179 30.2764C58.4567 30.2766 58.2972 30.2431 58.1496 30.1782C58.0021 30.1132 57.8697 30.0182 57.7611 29.8992C57.6524 29.7802 57.5698 29.6399 57.5185 29.4872C57.4672 29.3344 57.4484 29.1727 57.4633 29.0123C57.4477 28.8523 57.4661 28.6908 57.5173 28.5384C57.5684 28.386 57.6512 28.2461 57.7602 28.1278C57.8691 28.0095 58.0019 27.9156 58.1497 27.852C58.2975 27.7885 58.457 27.7569 58.6179 27.7592C58.9402 27.7766 59.2436 27.9168 59.4656 28.151C59.6875 28.3851 59.8113 28.6953 59.8113 29.0178C59.8113 29.3403 59.6875 29.6505 59.4656 29.8847C59.2436 30.1188 58.9402 30.259 58.6179 30.2764ZM58.8503 26.6314C58.5893 26.6202 58.3291 26.6666 58.0881 26.7672C57.8471 26.8679 57.6313 27.0203 57.456 27.2138C57.454 27.0561 57.3897 26.9055 57.277 26.795C57.1644 26.6846 57.0125 26.6231 56.8547 26.6241C56.7729 26.6226 56.6916 26.6376 56.6158 26.6682C56.5399 26.6987 56.471 26.7443 56.4131 26.8021C56.3553 26.8599 56.3097 26.9287 56.2791 27.0045C56.2485 27.0803 56.2335 27.1615 56.235 27.2432V32.4435C56.235 32.6087 56.3007 32.7671 56.4176 32.8839C56.5345 33.0007 56.693 33.0663 56.8584 33.0663C57.0237 33.0663 57.1823 33.0007 57.2992 32.8839C57.4161 32.7671 57.4818 32.6087 57.4818 32.4435V30.8587C57.6577 31.0425 57.8706 31.1868 58.1066 31.2821C58.3425 31.3774 58.596 31.4215 58.8503 31.4115C60.134 31.4115 61.0635 30.3943 61.0635 29.0123C61.0635 27.6302 60.1414 26.6204 58.8577 26.6204L58.8503 26.6314ZM53.0221 27.6376C53.1485 27.629 53.2754 27.6465 53.3948 27.6889C53.5142 27.7313 53.6237 27.7977 53.7164 27.8841C53.809 27.9705 53.883 28.0749 53.9336 28.191C53.9842 28.3071 54.0105 28.4323 54.0107 28.559H51.9339C51.9752 28.2986 52.1084 28.0615 52.3093 27.8905C52.5101 27.7195 52.7656 27.6259 53.0295 27.6265L53.0221 27.6376ZM53.0516 26.6314C52.737 26.6269 52.4247 26.6858 52.1334 26.8047C51.8421 26.9236 51.5778 27.0999 51.3564 27.3233C51.1349 27.5466 50.9609 27.8123 50.8446 28.1044C50.7283 28.3965 50.6723 28.7091 50.6797 29.0233C50.6789 29.3466 50.7438 29.6667 50.8706 29.9642C50.9974 30.2616 51.1834 30.5302 51.4174 30.7536C51.6513 30.977 51.9282 31.1505 52.2314 31.2636C52.5345 31.3767 52.8575 31.427 53.1807 31.4115C53.6953 31.4167 54.1998 31.2692 54.6304 30.9877C54.7234 30.9407 54.8018 30.8691 54.8571 30.7808C54.9123 30.6924 54.9424 30.5907 54.9439 30.4865C54.9444 30.4201 54.9316 30.3542 54.906 30.2929C54.8805 30.2316 54.8428 30.176 54.7953 30.1296C54.7478 30.0831 54.6914 30.0467 54.6294 30.0225C54.5675 29.9984 54.5013 29.987 54.4349 29.9889C54.3401 29.9916 54.248 30.0209 54.1693 30.0737C53.8826 30.248 53.5532 30.3399 53.2176 30.3391C52.931 30.3664 52.644 30.2904 52.4086 30.1248C52.1732 29.9592 52.0048 29.7149 51.9339 29.4361H54.5382C54.6258 29.4445 54.7142 29.4342 54.7975 29.4059C54.8809 29.3777 54.9573 29.3321 55.0218 29.2722C55.0863 29.2124 55.1373 29.1395 55.1716 29.0585C55.2058 28.9775 55.2225 28.8901 55.2206 28.8022V28.7727C55.2288 28.4872 55.1784 28.2031 55.0726 27.9377C54.9668 27.6724 54.8077 27.4315 54.6052 27.2299C54.4027 27.0283 54.1611 26.8702 53.8952 26.7654C53.6293 26.6606 53.3447 26.6112 53.059 26.6204L53.0516 26.6314ZM48.1493 31.4226C48.2325 31.4237 48.3151 31.4078 48.392 31.3759C48.4689 31.344 48.5385 31.2968 48.5965 31.2371C48.6545 31.1774 48.6997 31.1065 48.7293 31.0288C48.759 30.9511 48.7725 30.8681 48.769 30.785V27.7887H49.7575C49.828 27.7918 49.8983 27.7803 49.9641 27.755C50.0299 27.7297 50.0897 27.6911 50.1399 27.6416C50.1901 27.5922 50.2296 27.5329 50.2558 27.4675C50.2821 27.4022 50.2945 27.3321 50.2924 27.2617C50.294 27.1914 50.2811 27.1216 50.2547 27.0564C50.2283 26.9913 50.1888 26.9323 50.1387 26.8829C50.0887 26.8336 50.029 26.795 49.9635 26.7695C49.8979 26.744 49.8278 26.7321 49.7575 26.7346H46.5594C46.4894 26.7332 46.4198 26.7457 46.3547 26.7716C46.2896 26.7975 46.2304 26.8361 46.1805 26.8853C46.1307 26.9344 46.0912 26.993 46.0644 27.0577C46.0376 27.1223 46.024 27.1917 46.0245 27.2617C46.023 27.3319 46.0358 27.4018 46.0622 27.4669C46.0887 27.532 46.1281 27.5911 46.1782 27.6404C46.2283 27.6898 46.2879 27.7284 46.3535 27.7539C46.419 27.7794 46.4891 27.7912 46.5594 27.7887H47.5369V30.785C47.5379 30.9486 47.6036 31.1051 47.7197 31.2204C47.8358 31.3358 47.9929 31.4005 48.1566 31.4005L48.1493 31.4226Z" fill="#C71157"/>
</g>
<defs>
<clipPath id="clip0_210_3468">
<rect width="147" height="36" fill="white"/>
</clipPath>
</defs>
</svg>
